<!-- SVG Icon Library for Report Templates -->
<svg xmlns="http://www.w3.org/2000/svg" style="display: none;">
  
  <!-- Alert Icon -->
  <symbol id="icon-alert" viewBox="0 0 24 24" fill="none" stroke="currentColor" stroke-width="2">
    <path d="M10.29 3.86L1.82 18a2 2 0 001.71 3h16.94a2 2 0 001.71-3L13.71 3.86a2 2 0 00-3.42 0z"/>
    <line x1="12" y1="9" x2="12" y2="13"/>
    <line x1="12" y1="17" x2="12.01" y2="17"/>
  </symbol>

  <!-- Check Circle Icon -->
  <symbol id="icon-check" viewBox="0 0 24 24" fill="none" stroke="currentColor" stroke-width="2">
    <path d="M22 11.08V12a10 10 0 11-5.93-9.14"/>
    <polyline points="22 4 12 14.01 9 11.01"/>
  </symbol>

  <!-- Map Pin Icon -->
  <symbol id="icon-map-pin" viewBox="0 0 24 24" fill="none" stroke="currentColor" stroke-width="2">
    <path d="M21 10c0 7-9 13-9 13s-9-6-9-13a9 9 0 0118 0z"/>
    <circle cx="12" cy="10" r="3"/>
  </symbol>

  <!-- Hospital Icon -->
  <symbol id="icon-hospital" viewBox="0 0 24 24" fill="none" stroke="currentColor" stroke-width="2">
    <path d="M19 21v-4a3 3 0 00-3-3H8a3 3 0 00-3 3v4"/>
    <rect x="2" y="7" width="20" height="14" rx="2" ry="2"/>
    <line x1="12" y1="11" x2="12" y2="17"/>
    <line x1="9" y1="14" x2="15" y2="14"/>
  </symbol>

  <!-- Bus/Transit Icon -->
  <symbol id="icon-bus" viewBox="0 0 24 24" fill="none" stroke="currentColor" stroke-width="2">
    <rect x="3" y="6" width="18" height="13" rx="2"/>
    <path d="M3 11h18"/>
    <circle cx="8" cy="16" r="1"/>
    <circle cx="16" cy="16" r="1"/>
    <path d="M7 6V4a2 2 0 012-2h6a2 2 0 012 2v2"/>
  </symbol>

  <!-- Phone Icon -->
  <symbol id="icon-phone" viewBox="0 0 24 24" fill="none" stroke="currentColor" stroke-width="2">
    <path d="M22 16.92v3a2 2 0 01-2.18 2 19.79 19.79 0 01-8.63-3.07 19.5 19.5 0 01-6-6 19.79 19.79 0 01-3.07-8.67A2 2 0 014.11 2h3a2 2 0 012 1.72 12.84 12.84 0 00.7 2.81 2 2 0 01-.45 2.11L8.09 9.91a16 16 0 006 6l1.27-1.27a2 2 0 012.11-.45 12.84 12.84 0 002.81.7A2 2 0 0122 16.92z"/>
  </symbol>

  <!-- Globe/Website Icon -->
  <symbol id="icon-globe" viewBox="0 0 24 24" fill="none" stroke="currentColor" stroke-width="2">
    <circle cx="12" cy="12" r="10"/>
    <line x1="2" y1="12" x2="22" y2="12"/>
    <path d="M12 2a15.3 15.3 0 014 10 15.3 15.3 0 01-4 10 15.3 15.3 0 01-4-10 15.3 15.3 0 014-10z"/>
  </symbol>

  <!-- Calendar Icon -->
  <symbol id="icon-calendar" viewBox="0 0 24 24" fill="none" stroke="currentColor" stroke-width="2">
    <rect x="3" y="4" width="18" height="18" rx="2" ry="2"/>
    <line x1="16" y1="2" x2="16" y2="6"/>
    <line x1="8" y1="2" x2="8" y2="6"/>
    <line x1="3" y1="10" x2="21" y2="10"/>
  </symbol>

  <!-- Shield Icon -->
  <symbol id="icon-shield" viewBox="0 0 24 24" fill="none" stroke="currentColor" stroke-width="2">
    <path d="M12 22s8-4 8-10V5l-8-3-8 3v7c0 6 8 10 8 10z"/>
  </symbol>

  <!-- Trending Up Icon -->
  <symbol id="icon-trending-up" viewBox="0 0 24 24" fill="none" stroke="currentColor" stroke-width="2">
    <polyline points="23 6 13.5 15.5 8.5 10.5 1 18"/>
    <polyline points="17 6 23 6 23 12"/>
  </symbol>

  <!-- Info Icon -->
  <symbol id="icon-info" viewBox="0 0 24 24" fill="none" stroke="currentColor" stroke-width="2">
    <circle cx="12" cy="12" r="10"/>
    <line x1="12" y1="16" x2="12" y2="12"/>
    <line x1="12" y1="8" x2="12.01" y2="8"/>
  </symbol>

  <!-- File Text Icon -->
  <symbol id="icon-file-text" viewBox="0 0 24 24" fill="none" stroke="currentColor" stroke-width="2">
    <path d="M14 2H6a2 2 0 00-2 2v16a2 2 0 002 2h12a2 2 0 002-2V8z"/>
    <polyline points="14 2 14 8 20 8"/>
    <line x1="16" y1="13" x2="8" y2="13"/>
    <line x1="16" y1="17" x2="8" y2="17"/>
    <polyline points="10 9 9 9 8 9"/>
  </symbol>

  <!-- Taxi Icon -->
  <symbol id="icon-taxi" viewBox="0 0 24 24" fill="none" stroke="currentColor" stroke-width="2">
    <path d="M5 17h14v3H5zM3 11l2-5h14l2 5H3z"/>
    <rect x="7" y="6" width="10" height="5"/>
    <circle cx="7.5" cy="15.5" r="1.5"/>
    <circle cx="16.5" cy="15.5" r="1.5"/>
  </symbol>

  <!-- Car Icon (Rideshare) -->
  <symbol id="icon-car" viewBox="0 0 24 24" fill="none" stroke="currentColor" stroke-width="2">
    <path d="M5 17h14v3H5zM3 11l2-6h14l2 6H3z"/>
    <circle cx="7" cy="17" r="2"/>
    <circle cx="17" cy="17" r="2"/>
  </symbol>

  <!-- Cloud/Weather Icon -->
  <symbol id="icon-cloud" viewBox="0 0 24 24" fill="none" stroke="currentColor" stroke-width="2">
    <path d="M18 10h-1.26A8 8 0 109 20h9a5 5 0 000-10z"/>
  </symbol>

</svg>
